<svg width="236" height="137" viewBox="0 0 236 137" fill="none" xmlns="http://www.w3.org/2000/svg">
<path d="M0.707764 65.3558L119.462 64.7411C119.462 64.7411 148.93 69.6611 138.815 115.788C138.815 115.788 147.612 117.017 165.644 94.8756C165.644 94.8756 174.441 81.9596 185.876 89.9557C185.876 89.9557 189.834 67.8143 171.362 64.7382L228.98 64.1235C228.98 64.1235 219.744 89.9557 184.558 115.17C184.558 115.17 163.447 131.162 135.297 135.465C135.297 135.465 93.0752 142.229 61.4073 123.778C61.4073 123.778 24.4609 107.171 0.710657 65.3498L0.707764 65.3558Z" fill="#EAB579"/>
<path d="M161.467 71.9316L168.65 72.6106C168.65 72.6106 169.642 74.9812 165.677 75.6601C165.677 75.6601 163.448 75.3206 161.467 71.9316Z" fill="#333339"/>
<path d="M0.0146712 62.0007C-0.299953 61.8974 4.48902 73.6555 10.2163 74.4378C32.9082 77.5346 61.294 74.0009 74.2325 74.0186C75.466 74.0186 99.8229 73.3692 99.8257 73.4459C99.8507 74.2873 21.6931 77.8977 15.3227 78.1693C15.3227 78.1693 11.3829 78.7331 6.77771 76.956C5.22129 76.3567 3.45048 73.5699 3.03284 72.9293C0.446242 68.9588 0.443454 62.1424 0.0174582 62.0036L0.0146712 62.0007Z" fill="#131313"/>
<path d="M8.1527 75.8033C7.88597 75.7201 11.7803 85.1878 16.6517 85.8201C35.9185 88.3293 60.2139 85.5206 71.2427 85.5473C72.2956 85.5473 93.7861 84.1096 93.7861 84.1729C93.7945 84.8484 25.892 88.6222 20.4562 88.8319C20.4562 88.8319 17.5755 89.2778 13.6755 87.8435C12.3587 87.3576 10.8931 85.1147 10.5477 84.5988C8.40539 81.4008 8.51209 75.9164 8.1527 75.8033Z" fill="#131313"/>
<path d="M17.0772 88.4663C16.86 88.3955 22.5622 96.1476 27.0254 96.9152C42.584 99.5868 59.3176 96.6908 68.2662 96.7115C69.121 96.7115 86.8875 95.5336 86.8875 95.5867C86.8959 96.1595 33.6632 99.2444 29.2529 99.4245C29.2529 99.4245 25.7335 98.5743 22.5706 97.358C21.5014 96.9477 19.5107 93.9572 19.2295 93.5203C17.4921 90.8162 17.3695 88.5608 17.0772 88.4663Z" fill="#131313"/>
<path d="M26.5438 98.5034C26.3266 98.4326 32.0289 106.185 36.4921 106.952C52.0506 109.624 68.7842 106.728 77.7329 106.749C78.5876 106.749 82.1543 106.456 82.1543 106.509C82.1627 107.082 43.1298 109.281 38.7195 109.462C38.7195 109.462 35.2002 108.611 32.0372 107.395C30.968 106.985 28.9773 103.994 28.6961 103.557C26.9587 100.853 26.8362 98.5979 26.5438 98.5034Z" fill="#131313"/>
<path d="M37.7506 108.467C37.5334 108.396 42.5618 113.58 48.8126 115.883C53.8243 117.728 56.887 117.949 65.5183 118.392C66.3703 118.436 78.3705 117.633 78.326 117.654C77.0034 118.244 54.1027 120.311 49.2302 118.982C49.2302 118.982 44.7753 117.949 43.3136 116.621C42.4505 115.835 40.1841 113.958 39.9028 113.521C38.1655 110.817 38.0429 108.561 37.7506 108.467Z" fill="#131313"/>
<path d="M14.3347 46.4C9.41469 46.4 4.25469 42.76 4.25469 35.6C4.25469 28.44 9.41469 24.8 14.3347 24.8C18.1347 24.8 20.7747 26.88 21.5347 28.52H21.6547V25.2H26.0547V46H21.6547V42.68H21.5347C20.7747 44.32 18.1347 46.4 14.3347 46.4ZM8.61469 35.6C8.61469 40.08 11.8547 42.4 15.1747 42.4C18.5347 42.4 21.7747 40.08 21.7747 35.6C21.7747 31.12 18.5347 28.8 15.1747 28.8C11.8547 28.8 8.61469 31.12 8.61469 35.6ZM30.45 46V17.6H34.85V46H30.45ZM39.2391 46V17.6H43.6391V46H39.2391ZM68.8281 46H64.4281V42.68H64.3081C63.5481 44.32 60.9081 46.4 57.1081 46.4C52.1881 46.4 47.0281 42.76 47.0281 35.6C47.0281 28.44 52.1881 24.8 57.1081 24.8C60.9081 24.8 63.5481 26.88 64.3081 28.52H64.4281V17.6H68.8281V46ZM51.3881 35.6C51.3881 40.08 54.6281 42.4 57.9481 42.4C61.3081 42.4 64.5481 40.08 64.5481 35.6C64.5481 31.12 61.3081 28.8 57.9481 28.8C54.6281 28.8 51.3881 31.12 51.3881 35.6ZM82.3034 46.4C77.3834 46.4 72.2234 42.76 72.2234 35.6C72.2234 28.44 77.3834 24.8 82.3034 24.8C86.1034 24.8 88.7434 26.88 89.5034 28.52H89.6234V25.2H94.0234V46H89.6234V42.68H89.5034C88.7434 44.32 86.1034 46.4 82.3034 46.4ZM76.5834 35.6C76.5834 40.08 79.8234 42.4 83.1434 42.4C86.5034 42.4 89.7434 40.08 89.7434 35.6C89.7434 31.12 86.5034 28.8 83.1434 28.8C79.8234 28.8 76.5834 31.12 76.5834 35.6ZM97.0188 46L109.099 29.08H98.1788V25.2H116.259L104.179 42.08H115.579V46H97.0188ZM128.257 46.4C122.617 46.4 117.497 42.52 117.497 35.6C117.497 28.6 122.657 24.8 127.937 24.8C133.217 24.8 138.977 28.56 137.977 37.28H121.657C122.337 40.88 125.177 42.72 128.737 42.72C130.977 42.72 132.977 42 134.497 40.56L136.577 42.72C134.777 44.96 131.777 46.4 128.257 46.4ZM121.617 34H134.057C133.817 30.4 130.937 28.56 127.977 28.56C125.057 28.56 122.257 30.32 121.617 34ZM162.294 46L156.494 30.6L150.694 46H146.614L138.894 25.2H143.294L148.734 40.64L154.454 25.2H158.534L164.254 40.64L169.654 25.2H174.094L166.374 46H162.294ZM185.76 46.4C180.36 46.4 174.88 42.6 174.88 35.6C174.88 28.6 180.36 24.8 185.76 24.8C191.16 24.8 196.64 28.6 196.64 35.6C196.64 42.6 191.16 46.4 185.76 46.4ZM179.24 35.6C179.24 39.88 182.36 42.36 185.76 42.36C189.16 42.36 192.24 39.88 192.24 35.6C192.24 31.32 189.16 28.84 185.76 28.84C182.36 28.84 179.24 31.32 179.24 35.6ZM200.02 46V25.2H204.42V30.56C205.14 27.44 207.22 24.8 211.02 24.8C211.5 24.8 211.9 24.84 212.34 24.96V29.16C211.9 29.08 211.54 29.04 211.06 29.04C207.1 29.04 204.42 31.92 204.42 36.28V46H200.02ZM215.684 46V17.6H220.084V35.04L228.924 25.2H234.284L225.764 34.52L235.204 46H230.164L223.004 37.56L220.084 40.72V46H215.684Z" fill="white"/>
</svg>
