<svg width="232" height="30" viewBox="0 0 232 30" fill="none" xmlns="http://www.w3.org/2000/svg">
<path d="M10.3347 29.4C5.41469 29.4 0.254688 25.76 0.254688 18.6C0.254688 11.44 5.41469 7.8 10.3347 7.8C14.1347 7.8 16.7747 9.88 17.5347 11.52H17.6547V8.2H22.0547V29H17.6547V25.68H17.5347C16.7747 27.32 14.1347 29.4 10.3347 29.4ZM4.61469 18.6C4.61469 23.08 7.85469 25.4 11.1747 25.4C14.5347 25.4 17.7747 23.08 17.7747 18.6C17.7747 14.12 14.5347 11.8 11.1747 11.8C7.85469 11.8 4.61469 14.12 4.61469 18.6ZM26.45 29V0.599998H30.85V29H26.45ZM35.2391 29V0.599998H39.6391V29H35.2391ZM64.8281 29H60.4281V25.68H60.3081C59.5481 27.32 56.9081 29.4 53.1081 29.4C48.1881 29.4 43.0281 25.76 43.0281 18.6C43.0281 11.44 48.1881 7.8 53.1081 7.8C56.9081 7.8 59.5481 9.88 60.3081 11.52H60.4281V0.599998H64.8281V29ZM47.3881 18.6C47.3881 23.08 50.6281 25.4 53.9481 25.4C57.3081 25.4 60.5481 23.08 60.5481 18.6C60.5481 14.12 57.3081 11.8 53.9481 11.8C50.6281 11.8 47.3881 14.12 47.3881 18.6ZM78.3034 29.4C73.3834 29.4 68.2234 25.76 68.2234 18.6C68.2234 11.44 73.3834 7.8 78.3034 7.8C82.1034 7.8 84.7434 9.88 85.5034 11.52H85.6234V8.2H90.0234V29H85.6234V25.68H85.5034C84.7434 27.32 82.1034 29.4 78.3034 29.4ZM72.5834 18.6C72.5834 23.08 75.8234 25.4 79.1434 25.4C82.5034 25.4 85.7434 23.08 85.7434 18.6C85.7434 14.12 82.5034 11.8 79.1434 11.8C75.8234 11.8 72.5834 14.12 72.5834 18.6ZM93.0188 29L105.099 12.08H94.1788V8.2H112.259L100.179 25.08H111.579V29H93.0188ZM124.257 29.4C118.617 29.4 113.497 25.52 113.497 18.6C113.497 11.6 118.657 7.8 123.937 7.8C129.217 7.8 134.977 11.56 133.977 20.28H117.657C118.337 23.88 121.177 25.72 124.737 25.72C126.977 25.72 128.977 25 130.497 23.56L132.577 25.72C130.777 27.96 127.777 29.4 124.257 29.4ZM117.617 17H130.057C129.817 13.4 126.937 11.56 123.977 11.56C121.057 11.56 118.257 13.32 117.617 17ZM158.294 29L152.494 13.6L146.694 29H142.614L134.894 8.2H139.294L144.734 23.64L150.454 8.2H154.534L160.254 23.64L165.654 8.2H170.094L162.374 29H158.294ZM181.76 29.4C176.36 29.4 170.88 25.6 170.88 18.6C170.88 11.6 176.36 7.8 181.76 7.8C187.16 7.8 192.64 11.6 192.64 18.6C192.64 25.6 187.16 29.4 181.76 29.4ZM175.24 18.6C175.24 22.88 178.36 25.36 181.76 25.36C185.16 25.36 188.24 22.88 188.24 18.6C188.24 14.32 185.16 11.84 181.76 11.84C178.36 11.84 175.24 14.32 175.24 18.6ZM196.02 29V8.2H200.42V13.56C201.14 10.44 203.22 7.8 207.02 7.8C207.5 7.8 207.9 7.84 208.34 7.96V12.16C207.9 12.08 207.54 12.04 207.06 12.04C203.1 12.04 200.42 14.92 200.42 19.28V29H196.02ZM211.684 29V0.599998H216.084V18.04L224.924 8.2H230.284L221.764 17.52L231.204 29H226.164L219.004 20.56L216.084 23.72V29H211.684Z" fill="black"/>
</svg>
