<svg width="345" height="130" viewBox="0 0 345 130" fill="none" xmlns="http://www.w3.org/2000/svg">
<path d="M96.6691 95.1078C147.517 87.7958 284.056 51.2718 331.016 30.4438C338.162 27.2738 348.827 14.1548 343.387 9.06277C338.635 4.61477 332.074 4.20984 324.81 4.23184C304.956 4.29184 317.743 -11.2202 234.738 16.7808C165.71 40.0668 44 87.9558 28.786 98.6308C25.373 101.026 20.0851 108.316 39.42 105.205C66.7131 100.813 70.7191 98.8388 96.6691 95.1078Z" fill="#C3E4FF"/>
<path d="M33.78 100.279L0.281982 72.2999C0.281982 72.2999 10.658 65.9249 16.158 65.6899C21.658 65.4549 66.714 87.3128 66.714 87.3128L33.78 100.279Z" fill="#C3E4FF"/>
<path d="M228.839 38.1807C228.839 38.1807 94.416 23.7287 88.14 26.2417C81.863 28.7547 56.729 36.9417 56.729 36.9417L156.534 67.1266L228.839 38.1807Z" fill="#C3E4FF"/>
<path d="M256.688 33.3428C256.688 33.3428 181.787 112.228 174.286 115.655C166.785 119.082 152.785 121.612 152.785 121.612L178.259 68.0048L256.688 33.3428Z" fill="#C3E4FF"/>
<path d="M79.296 91.1387C79.296 91.1387 42.648 124.987 38.86 126.186C35.073 127.385 22.0911 129.51 22.0911 129.51L35.036 104.554L79.296 91.1387Z" fill="#C3E4FF"/>
<path d="M74.184 87.0908C74.184 87.0908 22.918 94.1558 19.196 95.5448C15.475 96.9348 5.31897 103.071 5.31897 103.071L30.803 103.124L74.184 87.0908Z" fill="#C3E4FF"/>
<path d="M221.954 83.0289C224.034 82.3629 226.151 81.6329 227.846 80.2559C230.759 77.8889 231.971 73.9259 231.951 70.1729C231.94 68.0589 231.412 65.6729 229.596 64.5919C228.244 63.7869 226.55 63.9339 224.99 64.1339C214.781 65.4419 204.724 67.9279 195.082 71.5259C191.916 72.7069 188.601 74.1649 186.769 77.0039C184.99 79.7609 184.552 84.584 185.838 87.638C187.553 91.712 190.859 90.0809 194.846 89.4539C204.029 88.0109 213.101 85.8619 221.954 83.0289Z" fill="#C3E4FF"/>
<path d="M176.308 41.6876C178.388 41.0216 180.505 40.2917 182.2 38.9147C185.113 36.5477 186.325 32.5847 186.305 28.8307C186.294 26.7167 185.767 24.3306 183.95 23.2496C182.598 22.4446 180.904 22.5916 179.344 22.7916C169.136 24.0996 159.078 26.5856 149.436 30.1836C146.27 31.3646 142.955 32.8226 141.123 35.6616C139.344 38.4186 138.906 43.2416 140.192 46.2966C141.907 50.3706 145.213 48.7397 149.2 48.1127C158.383 46.6707 167.455 44.5216 176.308 41.6876Z" fill="#C3E4FF"/>
</svg>
