<svg width="229" height="75" viewBox="0 0 229 75" fill="none" xmlns="http://www.w3.org/2000/svg">
<path d="M0.707764 3.3557L119.462 2.74107C119.462 2.74107 148.93 7.66105 138.815 53.7877C138.815 53.7877 147.612 55.017 165.644 32.8756C165.644 32.8756 174.441 19.9595 185.876 27.9556C185.876 27.9556 189.834 5.8142 171.362 2.73811L228.98 2.12347C228.98 2.12347 219.744 27.9556 184.558 53.1702C184.558 53.1702 163.447 69.1623 135.297 73.4647C135.297 73.4647 93.0752 80.2286 61.4073 61.7779C61.4073 61.7779 24.4609 45.1711 0.710657 3.34978L0.707764 3.3557Z" fill="black"/>
<path d="M161.468 9.93158L168.65 10.6106C168.65 10.6106 169.642 12.9811 165.677 13.6601C165.677 13.6601 163.448 13.3206 161.468 9.93158Z" fill="#333339"/>
<path d="M0.0146712 0.00067692C-0.299953 -0.102646 4.48902 11.6555 10.2163 12.4378C32.9082 15.5346 61.294 12.0009 74.2325 12.0186C75.466 12.0186 99.8229 11.3692 99.8257 11.4459C99.8507 12.2873 21.6931 15.8977 15.3227 16.1693C15.3227 16.1693 11.3829 16.7331 6.77771 14.956C5.22129 14.3567 3.45048 11.5699 3.03284 10.9293C0.446242 6.95876 0.443454 0.14238 0.0174582 0.00363189L0.0146712 0.00067692Z" fill="white"/>
<path d="M8.15282 13.8032C7.88609 13.72 11.7804 23.1878 16.6519 23.8201C35.9186 26.3293 60.214 23.5206 71.2428 23.5472C72.2957 23.5472 93.7862 22.1096 93.7862 22.1728C93.7946 22.8484 25.8921 26.6221 20.4563 26.8318C20.4563 26.8318 17.5756 27.2777 13.6757 25.8434C12.3588 25.3576 10.8932 23.1146 10.5478 22.5988C8.40551 19.4007 8.51221 13.9164 8.15282 13.8032Z" fill="white"/>
<path d="M17.0771 26.4664C16.8599 26.3955 22.5621 34.1477 27.0253 34.9152C42.5839 37.5869 59.3174 34.6909 68.2661 34.7116C69.1209 34.7116 86.8874 33.5337 86.8874 33.5868C86.8958 34.1595 33.6631 37.2445 29.2527 37.4245C29.2527 37.4245 25.7334 36.5743 22.5705 35.3581C21.5013 34.9477 19.5105 31.9573 19.2293 31.5203C17.4919 28.8162 17.3694 26.5608 17.0771 26.4664Z" fill="white"/>
<path d="M26.5439 36.5035C26.3267 36.4326 32.0289 44.1848 36.4921 44.9524C52.0507 47.624 68.7842 44.728 77.7329 44.7487C78.5877 44.7487 82.1544 44.4564 82.1544 44.5095C82.1627 45.0823 43.1299 47.2816 38.7195 47.4616C38.7195 47.4616 35.2002 46.6114 32.0373 45.3952C30.9681 44.9848 28.9773 41.9944 28.6961 41.5575C26.9587 38.8533 26.8362 36.5979 26.5439 36.5035Z" fill="white"/>
<path d="M37.7507 46.4668C37.5335 46.396 42.5619 51.5799 48.8126 53.8825C53.8244 55.7276 56.8871 55.949 65.5184 56.3918C66.3703 56.4361 78.3706 55.6331 78.3261 55.6538C77.0035 56.2442 54.1028 58.3106 49.2303 56.9822C49.2303 56.9822 44.7754 55.949 43.3137 54.6205C42.4506 53.8353 40.1842 51.9577 39.9029 51.5208C38.1655 48.8167 38.043 46.5613 37.7507 46.4668Z" fill="white"/>
</svg>
