<svg width="225" height="115" viewBox="0 0 225 115" fill="none" xmlns="http://www.w3.org/2000/svg">
<path d="M0 115C0 63.0015 50.5525 25 112.913 25C175.274 25 225 63.0015 225 115" fill="#E08313"/>
<path d="M142.973 83.9664C142.973 83.9664 145.425 79.6933 153.38 80.5462C153.38 80.5462 155.305 80.3265 164.311 82.8206C164.311 82.8206 173.015 86.3499 188.493 82.5564C188.493 82.5564 177.654 84.5551 172.005 83.6447C172.005 83.6447 169.507 83.6361 160.094 80.4845C160.094 80.4845 146.231 75.4332 142.973 83.9664Z" fill="white"/>
<path d="M112.316 91.9055C112.316 91.9055 113.411 88.7768 118.9 89.5349C118.9 89.5349 120.172 89.4028 126.587 91.3957C126.587 91.3957 132.935 94.1525 142.897 91.5867C142.897 91.5867 135.834 92.8962 131.897 92.1295C131.897 92.1295 130.207 92.0835 123.43 89.5952C123.43 89.5952 113.395 85.628 112.318 91.904L112.316 91.9055Z" fill="white"/>
<path d="M4.52832 3.05956L112.812 2.49912C112.812 2.49912 139.682 6.98532 130.459 49.0452C130.459 49.0452 138.48 50.1661 154.923 29.9768C154.923 29.9768 162.944 18.1995 173.371 25.4906C173.371 25.4906 176.98 5.30131 160.137 2.49642L212.675 1.93597C212.675 1.93597 204.253 25.4906 172.169 48.4821C172.169 48.4821 152.92 63.0643 127.252 66.9874C127.252 66.9874 88.7522 73.1549 59.8763 56.3309C59.8763 56.3309 26.1872 41.1883 4.53096 3.05417L4.52832 3.05956Z" fill="#2B303A"/>
<path d="M151.112 9.05542L157.661 9.67455C157.661 9.67455 158.565 11.8361 154.95 12.4552C154.95 12.4552 152.918 12.1456 151.112 9.05542Z" fill="#333339"/>
<path d="M3.89619 0.000617239C3.60931 -0.0935964 7.97605 10.6279 13.1984 11.3413C33.8896 14.165 59.7728 10.9429 71.5706 10.959C72.6953 10.959 94.9048 10.3668 94.9073 10.4368C94.9302 11.204 23.6633 14.4961 17.8546 14.7437C17.8546 14.7437 14.2621 15.2579 10.063 13.6374C8.64377 13.0909 7.02908 10.5499 6.64826 9.96574C4.28971 6.34524 4.28717 0.129827 3.89873 0.00331169L3.89619 0.000617239Z" fill="white"/>
<path d="M11.3179 12.5861C11.0747 12.5103 14.6257 21.1433 19.0677 21.7198C36.6357 24.0078 58.7891 21.4468 68.8456 21.471C69.8056 21.471 89.4014 20.1601 89.4014 20.2178C89.4091 20.8338 27.4933 24.2749 22.5367 24.466C22.5367 24.466 19.91 24.8727 16.3538 23.5648C15.1531 23.1218 13.8167 21.0766 13.5018 20.6062C11.5484 17.6901 11.6456 12.6893 11.3179 12.5861Z" fill="white"/>
<path d="M19.452 24.133C19.254 24.0684 24.4535 31.1371 28.5232 31.837C42.71 34.2731 57.9683 31.6324 66.128 31.6513C66.9074 31.6513 83.1075 30.5772 83.1075 30.6257C83.1151 31.1479 34.5757 33.9608 30.5542 34.125C30.5542 34.125 27.3452 33.3498 24.4611 32.2408C23.4862 31.8666 21.6709 29.1398 21.4145 28.7414C19.8303 26.2757 19.7186 24.2191 19.452 24.133Z" fill="white"/>
<path d="M28.0865 33.2854C27.8885 33.2207 33.088 40.2895 37.1577 40.9893C51.3446 43.4254 66.6028 40.7848 74.7625 40.8036C75.5419 40.8036 78.7941 40.5371 78.7941 40.5856C78.8017 41.1078 43.2102 43.1132 39.1888 43.2774C39.1888 43.2774 35.9797 42.5021 33.0956 41.3931C32.1207 41.0189 30.3055 38.2921 30.0491 37.8937C28.4648 35.428 28.3531 33.3715 28.0865 33.2854Z" fill="white"/>
<path d="M38.3028 42.3699C38.1048 42.3053 42.6899 47.0321 48.3895 49.1318C52.9593 50.8142 55.752 51.016 63.6223 51.4198C64.3992 51.4602 75.3415 50.728 75.3008 50.7469C74.0949 51.2852 53.2132 53.1695 48.7703 51.9582C48.7703 51.9582 44.7082 51.016 43.3754 49.8047C42.5883 49.0887 40.5217 47.3767 40.2653 46.9783C38.6811 44.5126 38.5694 42.4561 38.3028 42.3699Z" fill="white"/>
</svg>
