<svg width="738" height="166" viewBox="0 0 738 166" fill="none" xmlns="http://www.w3.org/2000/svg">
<path d="M737.373 0.0175781C588.632 37.3166 492.161 70.7677 324.931 128.435C299.86 137.092 177.758 192.461 151.021 196.95C122.601 201.724 93.14 201.652 64.997 207.415C42.055 212.117 20.743 220.534 0 229.707V136.718C1.514 136.486 3.09 136.326 4.729 136.228C24.67 135.07 59.867 137.831 79.3 140.921C125.719 148.313 150.852 113.116 197.208 103.533C227.088 97.3516 267.379 107.363 291.114 91.8926C307.252 81.3746 319.524 67.0626 338.218 59.5106C376.737 43.9426 422.372 63.3316 465.344 60.3116C494.707 58.2366 535.15 23.2366 563.752 22.1366C622.51 19.8776 609.401 13.3596 737.373 0.0175781Z" fill="#FFE1DC"/>
</svg>
